<?xml version="1.0" encoding="utf-8"?>
<!-- Generator: Adobe Illustrator 19.2.1, SVG Export Plug-In . SVG Version: 6.00 Build 0)  -->
<svg version="1.1" id="Layer_1" xmlns="http://www.w3.org/2000/svg" xmlns:xlink="http://www.w3.org/1999/xlink" x="0px" y="0px"
	 viewBox="0 0 213.4 40.6" style="enable-background:new 0 0 213.4 40.6;" xml:space="preserve">
<style type="text/css">
	.st0{fill:#ef6c00;}
	.st1{fill:#ff9800;}
//	.st0{fill:#0277bd;}
//	.st1{fill:#03a9f4;}
</style>
<g>
	<path class="st0" d="M10.2,0c5.6,0,10.4,2,14.4,6c4,4,6,8.8,6,14.4c0,5.6-2,10.4-6,14.4c-4,4-8.8,6-14.4,6H2c-0.6,0-1-0.2-1.4-0.6
		C0.2,39.6,0,39.2,0,38.6V2c0-0.6,0.2-1,0.6-1.4C1,0.2,1.5,0,2,0H10.2z M10.2,36.6c4.5,0,8.3-1.6,11.5-4.8s4.8-7,4.8-11.5
		c0-4.5-1.6-8.3-4.8-11.5s-7-4.8-11.5-4.8H4.1v32.5H10.2z"/>
	<path class="st0" d="M54.5,33.7c0.6,0,1,0.2,1.4,0.6c0.4,0.4,0.6,0.9,0.6,1.4s-0.2,1-0.6,1.4c-2.6,2.3-5.7,3.4-9.3,3.4
		c-3.9,0-7.3-1.4-10.1-4.2c-2.8-2.8-4.2-6.1-4.2-10.1c0-3.9,1.4-7.3,4.2-10.1c2.8-2.8,6.1-4.2,10.1-4.2c3.9,0,7.3,1.4,10.1,4.2
		c2.8,2.8,4.2,6.1,4.2,10.1c0,0.6-0.2,1-0.6,1.4c-0.4,0.4-0.9,0.6-1.4,0.6H36.7c0.4,1.9,1.3,3.7,2.8,5.2c2,2,4.4,3,7.2,3
		c2.5,0,4.7-0.8,6.6-2.4C53.6,33.9,54,33.7,54.5,33.7z M56.6,24.4c-0.4-1.9-1.3-3.7-2.8-5.2c-2-2-4.4-3-7.2-3c-2.8,0-5.2,1-7.2,3
		c-1.5,1.5-2.4,3.2-2.8,5.2H56.6z"/>
	<path class="st0" d="M62.9,2c0-0.6,0.2-1,0.6-1.4C63.9,0.2,64.3,0,64.9,0s1,0.2,1.4,0.6C66.7,1,66.9,1.5,66.9,2v34.5h2
		c0.6,0,1,0.2,1.4,0.6c0.4,0.4,0.6,0.9,0.6,1.4s-0.2,1-0.6,1.4c-0.4,0.4-0.9,0.6-1.4,0.6h-4.1c-0.6,0-1-0.2-1.4-0.6
		c-0.4-0.4-0.6-0.9-0.6-1.4V2z"/>
	<path class="st0" d="M87.2,36.6c0.6,0,1,0.2,1.4,0.6c0.4,0.4,0.6,0.9,0.6,1.4s-0.2,1-0.6,1.4c-0.4,0.4-0.9,0.6-1.4,0.6
		c-6.8,0-10.2-3.4-10.2-10.2V16.2h-2c-0.6,0-1-0.2-1.4-0.6c-0.4-0.4-0.6-0.9-0.6-1.4s0.2-1,0.6-1.4c0.4-0.4,0.9-0.6,1.4-0.6h2V2
		c0-0.6,0.2-1,0.6-1.4C78,0.2,78.5,0,79.1,0s1,0.2,1.4,0.6C80.9,1,81.1,1.5,81.1,2v10.2h4.1c0.6,0,1,0.2,1.4,0.6
		c0.4,0.4,0.6,0.9,0.6,1.4s-0.2,1-0.6,1.4c-0.4,0.4-0.9,0.6-1.4,0.6h-4.1v14.2C81.1,34.5,83.1,36.6,87.2,36.6z"/>
	<path class="st0" d="M115.6,36.4c-2.8,2.8-6.2,4.3-10.2,4.3c-3.9,0-7.3-1.4-10.1-4.2c-2.8-2.8-4.2-6.1-4.2-10.1
		c0-3.9,1.4-7.3,4.2-10.1c2.8-2.8,6.1-4.2,10.1-4.2c3.9,0,7.3,1.4,10.1,4.2c2.8,2.8,4.2,6.1,4.2,10.1v12.2c0,0.6-0.2,1-0.6,1.4
		c-0.4,0.4-0.9,0.6-1.4,0.6s-1-0.2-1.4-0.6c-0.4-0.4-0.6-0.9-0.6-1.4V36.4z M105.4,16.2c-2.8,0-5.2,1-7.2,3s-3,4.4-3,7.2
		c0,2.8,1,5.2,3,7.2s4.4,3,7.2,3c2.8,0,5.2-1,7.2-3s3-4.4,3-7.2c0-2.8-1-5.2-3-7.2S108.2,16.2,105.4,16.2z"/>
	<path class="st1" d="M130.2,0h10.2c3.4,0,6.2,1.2,8.6,3.6c2.4,2.4,3.6,5.3,3.6,8.6c0,3.4-1.2,6.2-3.6,8.6c-1.1,1.1-2.3,1.9-3.6,2.5
		l8.8,14.2c0.2,0.3,0.3,0.7,0.3,1.1c0,0.6-0.2,1-0.6,1.4c-0.4,0.4-0.9,0.6-1.4,0.6c-0.7,0-1.3-0.3-1.8-1l-9.5-15.2
		c-0.3,0-0.6,0-0.9,0h-8.1v14.2c0,0.6-0.2,1-0.6,1.4c-0.4,0.4-0.9,0.6-1.4,0.6s-1-0.2-1.4-0.6c-0.4-0.4-0.6-0.9-0.6-1.4V2
		c0-0.6,0.2-1,0.6-1.4C129.2,0.2,129.6,0,130.2,0z M132.2,4.1v16.2h8.1c2.3,0,4.2-0.8,5.8-2.4c1.6-1.6,2.4-3.5,2.4-5.8
		c0-2.3-0.8-4.2-2.4-5.8c-1.6-1.6-3.5-2.4-5.8-2.4H132.2z"/>
	<path class="st1" d="M156.6,2c0-0.6,0.2-1,0.6-1.4c0.4-0.4,0.9-0.6,1.4-0.6s1,0.2,1.4,0.6c0.4,0.4,0.6,0.9,0.6,1.4v13.8
		c2.5-2.5,5.6-3.7,9.1-3.7c3.6,0,6.7,1.3,9.3,3.9c2.6,2.6,3.9,5.7,3.9,9.3v13.2c0,0.6-0.2,1-0.6,1.4c-0.4,0.4-0.9,0.6-1.4,0.6
		s-1-0.2-1.4-0.6c-0.4-0.4-0.6-0.9-0.6-1.4V25.4c0-2.5-0.9-4.7-2.7-6.5c-1.8-1.8-3.9-2.7-6.5-2.7s-4.7,0.9-6.5,2.7
		c-1.8,1.8-2.7,3.9-2.7,6.5v13.2c0,0.6-0.2,1-0.6,1.4c-0.4,0.4-0.9,0.6-1.4,0.6s-1-0.2-1.4-0.6c-0.4-0.4-0.6-0.9-0.6-1.4V2z"/>
	<path class="st1" d="M213.4,26.4c0,3.9-1.4,7.3-4.2,10.1c-2.8,2.8-6.1,4.2-10.1,4.2s-7.3-1.4-10.1-4.2c-2.8-2.8-4.2-6.1-4.2-10.1
		c0-3.9,1.4-7.3,4.2-10.1c2.8-2.8,6.1-4.2,10.1-4.2s7.3,1.4,10.1,4.2C212,19.1,213.4,22.5,213.4,26.4z M199.2,16.2
		c-2.8,0-5.2,1-7.2,3s-3,4.4-3,7.2c0,2.8,1,5.2,3,7.2s4.4,3,7.2,3s5.2-1,7.2-3s3-4.4,3-7.2c0-2.8-1-5.2-3-7.2S202,16.2,199.2,16.2z"
		/>
</g>
</svg>
