<?xml version="1.0" encoding="utf-8"?>
<!-- Generator: Adobe Illustrator 19.2.1, SVG Export Plug-In . SVG Version: 6.00 Build 0)  -->
<svg version="1.1" id="Layer_1" xmlns="http://www.w3.org/2000/svg" xmlns:xlink="http://www.w3.org/1999/xlink" x="0px" y="0px"
	 viewBox="0 0 81.5 73.8" style="enable-background:new 0 0 81.5 73.8;" xml:space="preserve">
<style type="text/css">
	.st0{fill:#ef6c00;}
	.st1{fill:#ff9800;}
//	.st0{fill:#0277bd;}
//	.st1{fill:#03a9f4;}
</style>
<g>
	<path class="st0" d="M34.3,0c0.6,0,1.1,0.2,1.5,0.6s0.6,0.9,0.6,1.5c0,0.6-0.2,1.1-0.6,1.6c-0.4,0.4-0.9,0.7-1.5,0.7H11.1L32.2,22
		c2.3,2.1,4.1,4.4,5.3,7c1.2,2.5,1.8,5.3,1.8,8.2c0,5.4-1.9,10.1-5.8,13.9c-3.8,3.8-8.5,5.8-13.9,5.8c-5.4,0-10.1-1.9-13.9-5.8
		C1.9,47.3,0,42.6,0,37.2s1.9-10.1,5.8-13.9c3.4-3.5,8.2-5.4,14.2-5.8L3.5,3.7C3.1,3.3,2.9,2.8,2.9,2.2c0-0.6,0.2-1.1,0.6-1.5
		S4.5,0,5.1,0H34.3z M19.7,21.9c-4.2,0-7.8,1.5-10.8,4.5c-3,3-4.5,6.6-4.5,10.8c0,4.2,1.5,7.8,4.5,10.8c3,3,6.6,4.5,10.8,4.5
		S27.5,51,30.5,48c3-3,4.5-6.6,4.5-10.8s-1.5-7.9-4.5-10.8C27.5,23.4,23.9,21.9,19.7,21.9z"/>
	<path class="st1" d="M46.5,71.6c0,0.6-0.2,1.1-0.6,1.5s-0.9,0.6-1.5,0.6c-0.6,0-1.1-0.2-1.5-0.6s-0.6-0.9-0.6-1.5V37.2
		c0-5.4,1.9-10.1,5.8-13.9c3.8-3.8,8.5-5.8,13.9-5.8c5.4,0,10.1,1.9,13.9,5.8c3.8,3.8,5.8,8.5,5.8,13.9s-1.9,10.1-5.8,13.9
		c-3.8,3.8-8.5,5.8-13.9,5.8c-5.4,0-10.1-1.9-13.9-5.8l-1.4-1.4V71.6z M46.5,37.2C46.5,41.4,48,45,51,48c3,3,6.6,4.5,10.8,4.5
		S69.6,51,72.6,48c3-3,4.5-6.6,4.5-10.8s-1.5-7.9-4.5-10.8c-3-3-6.6-4.5-10.8-4.5S54,23.4,51,26.4C48,29.4,46.5,33,46.5,37.2z"/>
</g>
</svg>
