<?xml version="1.0" standalone="no"?>
<!DOCTYPE svg PUBLIC "-//W3C//DTD SVG 20010904//EN"
 "http://www.w3.org/TR/2001/REC-SVG-20010904/DTD/svg10.dtd">
<svg version="1.0" xmlns="http://www.w3.org/2000/svg"
 width="656.000000pt" height="656.000000pt" viewBox="0 0 656.000000 656.000000"
 preserveAspectRatio="xMidYMid meet">
<metadata>
Created by potrace 1.11, written by Peter Selinger 2001-2013
</metadata>
<g transform="translate(0.000000,656.000000) scale(0.100000,-0.100000)"
fill="#000000" stroke="none">
<path d="M345 6236 c-90 -42 -126 -121 -101 -220 9 -36 42 -69 196 -196 69
-57 130 -108 135 -114 6 -6 33 -29 60 -51 28 -22 58 -47 69 -55 10 -8 26 -22
35 -30 9 -9 41 -36 71 -60 30 -25 57 -47 60 -50 3 -3 30 -25 60 -50 30 -25 57
-47 60 -50 3 -4 43 -37 90 -76 47 -38 90 -74 95 -80 6 -6 35 -30 65 -55 30
-24 57 -46 60 -49 3 -3 17 -15 32 -26 24 -19 123 -102 152 -129 6 -5 32 -26
58 -45 26 -19 48 -41 48 -47 0 -14 -1 -15 -50 -18 -19 -1 -57 -5 -85 -9 -27
-4 -66 -9 -85 -12 -19 -3 -42 -7 -50 -9 -8 -2 -31 -7 -50 -10 -107 -18 -297
-83 -421 -145 -199 -99 -361 -233 -527 -436 -156 -190 -275 -476 -309 -744
-12 -90 -6 -485 7 -485 2 0 5 -15 13 -60 8 -43 13 -64 28 -115 7 -25 13 -49
15 -55 4 -15 30 -86 48 -127 9 -21 16 -40 17 -43 0 -2 15 -32 34 -66 19 -33
35 -63 35 -65 0 -6 72 -108 140 -198 8 -11 60 -66 115 -121 170 -171 329 -279
522 -353 75 -29 108 -41 118 -42 3 0 23 -7 45 -15 22 -8 40 -12 40 -10 0 3 10
1 23 -4 12 -5 45 -12 72 -16 28 -4 68 -9 90 -13 92 -13 396 -6 485 12 125 24
232 55 316 92 135 58 287 147 347 202 15 14 27 23 27 19 0 -19 226 206 288
288 26 33 50 62 54 63 4 2 8 8 8 12 0 5 14 29 30 54 86 127 181 368 204 521 4
23 9 52 12 65 3 14 7 57 10 95 18 222 -7 465 -63 610 -8 22 -15 42 -15 45 -4
51 -112 269 -189 380 -126 183 -246 304 -503 510 -10 8 -23 20 -30 25 -6 6
-38 33 -71 60 -33 28 -65 55 -72 60 -49 42 -112 94 -193 161 -52 44 -100 83
-106 89 -7 5 -31 26 -54 44 -23 19 -48 40 -54 46 -6 5 -36 30 -66 55 -30 25
-57 47 -60 50 -5 5 -228 191 -258 215 -7 5 -18 15 -25 21 -7 6 -55 46 -107 89
-52 42 -103 86 -112 97 -10 11 -18 17 -18 14 0 -4 -10 3 -22 14 -13 12 -54 47
-92 78 -39 31 -81 67 -94 80 -14 12 -28 22 -32 22 -4 0 -10 6 -13 13 -3 9 189
12 942 12 902 1 948 2 981 19 39 21 52 35 80 88 42 79 10 184 -69 225 l-44 23
-1211 0 c-1004 -1 -1216 -3 -1241 -14z m1415 -1760 c60 -8 194 -40 237 -57 16
-7 37 -15 48 -19 57 -21 206 -101 225 -120 3 -3 30 -24 60 -47 155 -117 291
-283 369 -446 48 -100 74 -177 87 -257 3 -19 8 -38 11 -43 15 -25 22 -283 10
-382 -13 -107 -24 -158 -53 -244 -37 -111 -122 -269 -183 -343 -107 -128 -206
-222 -301 -284 -30 -20 -67 -45 -82 -55 -15 -11 -29 -19 -32 -19 -3 0 -33 -13
-68 -29 -99 -45 -186 -73 -271 -86 -15 -2 -47 -7 -70 -11 -49 -8 -300 -7 -337
1 -14 3 -38 8 -55 11 -16 2 -48 10 -70 15 -22 6 -47 12 -55 14 -89 18 -290
121 -387 198 -51 41 -263 259 -263 271 0 2 -16 28 -36 57 -123 180 -194 436
-188 677 5 226 53 405 161 590 15 26 31 49 35 50 4 2 8 8 8 14 0 17 106 144
168 202 96 89 123 111 185 152 166 110 335 172 517 190 36 4 66 7 67 8 6 5
212 -2 263 -8z"/>
<path d="M4978 4845 c-1 -1 -50 -6 -107 -9 -57 -4 -122 -10 -145 -15 -22 -5
-57 -12 -77 -15 -37 -6 -188 -50 -224 -66 -182 -80 -320 -161 -430 -252 -86
-71 -237 -229 -291 -304 -10 -14 -24 -31 -29 -38 -36 -39 -184 -326 -169 -326
4 0 2 -6 -3 -12 -25 -32 -71 -222 -89 -368 -11 -83 -12 -2959 -1 -2999 27
-104 147 -154 245 -102 30 16 71 69 78 99 3 15 9 34 14 43 7 14 11 113 11 244
-1 24 0 226 0 240 0 6 0 55 0 110 -1 55 -1 109 -1 120 1 19 1 470 1 490 -1 34
-1 207 -1 245 0 25 -1 79 -1 120 0 41 1 94 1 118 0 23 -2 47 -5 52 -3 5 -1 11
4 14 5 3 46 -32 92 -77 184 -182 327 -282 519 -365 83 -35 207 -75 270 -86 19
-3 46 -8 60 -11 63 -14 106 -17 260 -20 109 -2 197 2 260 12 110 16 259 55
325 83 25 11 47 20 50 20 15 1 128 58 198 100 222 131 443 353 578 581 77 129
155 335 176 467 11 62 10 587 0 632 -8 34 -25 104 -30 125 -44 164 -148 366
-271 525 -95 122 -349 360 -385 360 -6 0 -11 3 -11 8 0 13 -176 107 -265 141
-33 13 -69 27 -80 31 -26 11 -84 28 -115 34 -14 3 -60 12 -102 20 -43 9 -124
18 -180 21 -57 4 -108 8 -115 10 -6 2 -13 2 -15 0z m177 -370 c231 -34 455
-137 611 -280 22 -20 50 -46 64 -59 71 -65 164 -179 210 -256 51 -87 109 -228
126 -305 1 -5 7 -30 12 -55 38 -162 34 -417 -7 -558 -5 -18 -9 -33 -9 -35 2
-3 -22 -78 -32 -102 -16 -42 -92 -199 -101 -209 -5 -6 -32 -42 -60 -81 -82
-111 -284 -305 -318 -305 -5 0 -11 -4 -13 -9 -4 -11 -141 -85 -208 -111 -70
-28 -172 -57 -230 -65 -25 -3 -53 -8 -63 -11 -10 -3 -80 -6 -155 -6 -127 0
-179 4 -242 18 -14 3 -38 8 -54 10 -120 22 -319 118 -444 212 -102 78 -271
252 -272 280 0 6 -4 12 -8 12 -5 0 -15 12 -23 28 -8 15 -17 29 -21 32 -29 22
-131 275 -144 356 -3 22 -8 42 -10 45 -7 13 -18 146 -18 234 0 86 7 180 19
235 2 14 7 39 10 55 10 48 66 205 87 244 11 20 30 54 41 76 12 22 24 42 27 45
3 3 14 18 23 33 57 89 198 234 300 308 29 21 57 42 63 46 11 8 21 14 94 55 43
23 169 76 200 84 8 2 42 10 75 18 33 8 85 17 115 21 30 3 56 7 57 9 5 5 251
-2 298 -9z"/>
</g>
</svg>
